name rise31.4854peak64.571fall78.6902.mot
datacolumns 19
datarows 30
range 11.21163000000000 11.25995800000000
endheader
time	ground_force1_vx	ground_force1_vy	ground_force1_vz	ground_force1_px	ground_force1_py	ground_force1_pz	ground_force2_vx	ground_force2_vy	ground_force2_vz	ground_force2_px	ground_force2_py	ground_force2_pz	ground_torque1_x	ground_torque1_y	ground_torque1_z	ground_torque2_x	ground_torque2_y	ground_torque2_z	
11.21163000000000	5.08323600000000	684.77959899999996	43.90195400000000	0.22338000000000	0.00000000000000	0.11308600000000	0.00000000000000	0.00000000000000	0.00000000000000	0.00000000000000	0.00000000000000	0.00000000000000	0.00000000000000	17.78475100000000	0.00000000000000	0.00000000000000	0.00000000000000	0.00000000000000	
11.21329600000000	4.66528900000000	685.85927500000003	43.91373000000000	0.22255000000000	0.00000000000000	0.11306800000000	0.00000000000000	0.00000000000000	0.00000000000000	0.00000000000000	0.00000000000000	0.00000000000000	0.00000000000000	17.86407400000000	0.00000000000000	0.00000000000000	0.00000000000000	0.00000000000000	
11.21496000000000	4.23663500000000	686.98752000000002	43.92548500000000	0.22169500000000	0.00000000000000	0.11305000000000	0.00000000000000	0.00000000000000	0.00000000000000	0.00000000000000	0.00000000000000	0.00000000000000	0.00000000000000	17.94545000000000	0.00000000000000	0.00000000000000	0.00000000000000	0.00000000000000	
11.21662300000000	3.79699900000000	688.16374800000006	43.93716300000000	0.22081600000000	0.00000000000000	0.11303100000000	0.00000000000000	0.00000000000000	0.00000000000000	0.00000000000000	0.00000000000000	0.00000000000000	0.00000000000000	18.02884300000000	0.00000000000000	0.00000000000000	0.00000000000000	0.00000000000000	
11.21829500000000	3.34614500000000	689.38740199999995	43.94872900000000	0.21991300000000	0.00000000000000	0.11301300000000	0.00000000000000	0.00000000000000	0.00000000000000	0.00000000000000	0.00000000000000	0.00000000000000	0.00000000000000	18.11422400000000	0.00000000000000	0.00000000000000	0.00000000000000	0.00000000000000	
11.21996800000000	2.88388500000000	690.65794500000004	43.96016900000000	0.21898400000000	0.00000000000000	0.11299400000000	0.00000000000000	0.00000000000000	0.00000000000000	0.00000000000000	0.00000000000000	0.00000000000000	0.00000000000000	18.20156900000000	0.00000000000000	0.00000000000000	0.00000000000000	0.00000000000000	
11.22163000000000	2.41007200000000	691.97486500000002	43.97148900000000	0.21803100000000	0.00000000000000	0.11297500000000	0.00000000000000	0.00000000000000	0.00000000000000	0.00000000000000	0.00000000000000	0.00000000000000	0.00000000000000	18.29086000000000	0.00000000000000	0.00000000000000	0.00000000000000	0.00000000000000	
11.22329100000000	1.92460300000000	693.33766900000001	43.98271600000000	0.21705400000000	0.00000000000000	0.11295600000000	0.00000000000000	0.00000000000000	0.00000000000000	0.00000000000000	0.00000000000000	0.00000000000000	0.00000000000000	18.38208400000000	0.00000000000000	0.00000000000000	0.00000000000000	0.00000000000000	
11.22495800000000	1.42742100000000	694.74588500000004	43.99389600000000	0.21605300000000	0.00000000000000	0.11293600000000	0.00000000000000	0.00000000000000	0.00000000000000	0.00000000000000	0.00000000000000	0.00000000000000	0.00000000000000	18.47523100000000	0.00000000000000	0.00000000000000	0.00000000000000	0.00000000000000	
11.22663000000000	0.91851500000000	696.19905200000005	44.00509600000000	0.21503000000000	0.00000000000000	0.11291700000000	0.00000000000000	0.00000000000000	0.00000000000000	0.00000000000000	0.00000000000000	0.00000000000000	0.00000000000000	18.57029800000000	0.00000000000000	0.00000000000000	0.00000000000000	0.00000000000000	
11.22828900000000	0.39791600000000	697.69672600000001	44.01640100000000	0.21398500000000	0.00000000000000	0.11289700000000	0.00000000000000	0.00000000000000	0.00000000000000	0.00000000000000	0.00000000000000	0.00000000000000	0.00000000000000	18.66728200000000	0.00000000000000	0.00000000000000	0.00000000000000	0.00000000000000	
11.22995600000000	-0.13429800000000	699.23846900000001	44.02791600000000	0.21291900000000	0.00000000000000	0.11287700000000	0.00000000000000	0.00000000000000	0.00000000000000	0.00000000000000	0.00000000000000	0.00000000000000	0.00000000000000	18.76618300000000	0.00000000000000	0.00000000000000	0.00000000000000	0.00000000000000	
11.23163000000000	-0.67800800000000	700.82384999999999	44.03976500000000	0.21183400000000	0.00000000000000	0.11285700000000	0.00000000000000	0.00000000000000	0.00000000000000	0.00000000000000	0.00000000000000	0.00000000000000	0.00000000000000	18.86700300000000	0.00000000000000	0.00000000000000	0.00000000000000	0.00000000000000	
11.23329400000000	-1.23304900000000	702.45243900000003	44.05208700000000	0.21073000000000	0.00000000000000	0.11283600000000	0.00000000000000	0.00000000000000	0.00000000000000	0.00000000000000	0.00000000000000	0.00000000000000	0.00000000000000	18.96974400000000	0.00000000000000	0.00000000000000	0.00000000000000	0.00000000000000	
11.23495800000000	-1.79921700000000	704.12380599999995	44.06504100000000	0.20960900000000	0.00000000000000	0.11281600000000	0.00000000000000	0.00000000000000	0.00000000000000	0.00000000000000	0.00000000000000	0.00000000000000	0.00000000000000	19.07440900000000	0.00000000000000	0.00000000000000	0.00000000000000	0.00000000000000	
11.23663000000000	-2.37626300000000	705.83751199999995	44.07880200000000	0.20847300000000	0.00000000000000	0.11279400000000	0.00000000000000	0.00000000000000	0.00000000000000	0.00000000000000	0.00000000000000	0.00000000000000	0.00000000000000	19.18100000000000	0.00000000000000	0.00000000000000	0.00000000000000	0.00000000000000	
11.23829200000000	-2.96390000000000	707.59310800000003	44.09356000000000	0.20732300000000	0.00000000000000	0.11277300000000	0.00000000000000	0.00000000000000	0.00000000000000	0.00000000000000	0.00000000000000	0.00000000000000	0.00000000000000	19.28951500000000	0.00000000000000	0.00000000000000	0.00000000000000	0.00000000000000	
11.23995900000000	-3.56180400000000	709.39012900000000	44.10952300000000	0.20616000000000	0.00000000000000	0.11275100000000	0.00000000000000	0.00000000000000	0.00000000000000	0.00000000000000	0.00000000000000	0.00000000000000	0.00000000000000	19.39995500000000	0.00000000000000	0.00000000000000	0.00000000000000	0.00000000000000	
11.24162300000000	-4.16961200000000	711.22808999999995	44.12691200000000	0.20498700000000	0.00000000000000	0.11272800000000	0.00000000000000	0.00000000000000	0.00000000000000	0.00000000000000	0.00000000000000	0.00000000000000	0.00000000000000	19.51231200000000	0.00000000000000	0.00000000000000	0.00000000000000	0.00000000000000	
11.24329800000000	-4.78692400000000	713.10648000000003	44.14596000000000	0.20380500000000	0.00000000000000	0.11270500000000	0.00000000000000	0.00000000000000	0.00000000000000	0.00000000000000	0.00000000000000	0.00000000000000	0.00000000000000	19.62657900000000	0.00000000000000	0.00000000000000	0.00000000000000	0.00000000000000	
11.24495800000000	-5.41331000000000	715.02475700000002	44.16691800000000	0.20261600000000	0.00000000000000	0.11268200000000	0.00000000000000	0.00000000000000	0.00000000000000	0.00000000000000	0.00000000000000	0.00000000000000	0.00000000000000	19.74274200000000	0.00000000000000	0.00000000000000	0.00000000000000	0.00000000000000	
11.24662500000000	-6.04830600000000	716.98234400000001	44.19004300000000	0.20142200000000	0.00000000000000	0.11265800000000	0.00000000000000	0.00000000000000	0.00000000000000	0.00000000000000	0.00000000000000	0.00000000000000	0.00000000000000	19.86078500000000	0.00000000000000	0.00000000000000	0.00000000000000	0.00000000000000	
11.24829400000000	-6.69141700000000	718.97862199999997	44.21561000000000	0.20022400000000	0.00000000000000	0.11263400000000	0.00000000000000	0.00000000000000	0.00000000000000	0.00000000000000	0.00000000000000	0.00000000000000	0.00000000000000	19.98068300000000	0.00000000000000	0.00000000000000	0.00000000000000	0.00000000000000	
11.24995900000000	-7.34212100000000	721.01292699999999	44.24389800000000	0.19902400000000	0.00000000000000	0.11260900000000	0.00000000000000	0.00000000000000	0.00000000000000	0.00000000000000	0.00000000000000	0.00000000000000	0.00000000000000	20.10240800000000	0.00000000000000	0.00000000000000	0.00000000000000	0.00000000000000	
11.25162400000000	-7.99987000000000	723.08454200000006	44.27519900000000	0.19782400000000	0.00000000000000	0.11258300000000	0.00000000000000	0.00000000000000	0.00000000000000	0.00000000000000	0.00000000000000	0.00000000000000	0.00000000000000	20.22592400000000	0.00000000000000	0.00000000000000	0.00000000000000	0.00000000000000	
11.25329400000000	-8.66409200000000	725.19269599999996	44.30981300000000	0.19662500000000	0.00000000000000	0.11255700000000	0.00000000000000	0.00000000000000	0.00000000000000	0.00000000000000	0.00000000000000	0.00000000000000	0.00000000000000	20.35118800000000	0.00000000000000	0.00000000000000	0.00000000000000	0.00000000000000	
11.25496000000000	-9.33419300000000	727.33655399999998	44.34804400000000	0.19543100000000	0.00000000000000	0.11253000000000	0.00000000000000	0.00000000000000	0.00000000000000	0.00000000000000	0.00000000000000	0.00000000000000	0.00000000000000	20.47815100000000	0.00000000000000	0.00000000000000	0.00000000000000	0.00000000000000	
11.25662400000000	-10.00955800000000	729.51521600000001	44.39020500000000	0.19424100000000	0.00000000000000	0.11250300000000	0.00000000000000	0.00000000000000	0.00000000000000	0.00000000000000	0.00000000000000	0.00000000000000	0.00000000000000	20.60675500000000	0.00000000000000	0.00000000000000	0.00000000000000	0.00000000000000	
11.25828800000000	-10.68955700000000	731.72771000000000	44.43661000000000	0.19305700000000	0.00000000000000	0.11247400000000	0.00000000000000	0.00000000000000	0.00000000000000	0.00000000000000	0.00000000000000	0.00000000000000	0.00000000000000	20.73693400000000	0.00000000000000	0.00000000000000	0.00000000000000	0.00000000000000	
11.25995800000000	-11.37354000000000	733.97298899999998	44.48757900000000	0.19188200000000	0.00000000000000	0.11244600000000	0.00000000000000	0.00000000000000	0.00000000000000	0.00000000000000	0.00000000000000	0.00000000000000	0.00000000000000	20.86861600000000	0.00000000000000	0.00000000000000	0.00000000000000	0.00000000000000	
